<svg width="20" height="21" viewBox="0 0 20 21" fill="none" xmlns="http://www.w3.org/2000/svg">
<path d="M10 0.923828C15.5242 0.923828 20 5.39963 20 10.9238C20 16.448 15.5242 20.9238 10 20.9238C4.47581 20.9238 0 16.448 0 10.9238C0 5.39963 4.47581 0.923828 10 0.923828ZM8.83468 6.71415L11.879 9.6335H4.51613C3.97984 9.6335 3.54839 10.065 3.54839 10.6012V11.2464C3.54839 11.7827 3.97984 12.2142 4.51613 12.2142H11.879L8.83468 15.1335C8.44355 15.5085 8.43548 16.1335 8.81855 16.5166L9.2621 16.9561C9.64113 17.3351 10.254 17.3351 10.629 16.9561L15.9798 11.6093C16.3589 11.2303 16.3589 10.6174 15.9798 10.2424L10.629 4.88754C10.25 4.50851 9.6371 4.50851 9.2621 4.88754L8.81855 5.32705C8.43548 5.71415 8.44355 6.33915 8.83468 6.71415Z" fill="white"/>
</svg>
